<?xml version="1.0" encoding="utf-8"?>
<!-- Generator: Adobe Illustrator 23.0.2, SVG Export Plug-In . SVG Version: 6.00 Build 0)  -->
<svg version="1.1" id="b0e398ea-9313-46b3-a3ee-bf7f717038b1"
	 xmlns="http://www.w3.org/2000/svg" xmlns:xlink="http://www.w3.org/1999/xlink" x="0px" y="0px" viewBox="0 0 760.6 493.9"
	 style="enable-background:new 0 0 760.6 493.9;" xml:space="preserve">
<style type="text/css">
	.st0{fill:#F2F2F2;}
	.st1{fill:#3F3D56;}
	.st2{fill:#E6E6E6;}
	.st3{fill:#FFFFFF;}
	.st4{fill:#005B96;}
	.st5{opacity:0.1;fill:#005B96;enable-background:new    ;}
	.st6{fill:url(#SVGID_1_);}
	.st7{opacity:0.1;enable-background:new    ;}
	.st8{fill:#CF6F80;}
	.st9{fill:#512E4E;}
	.st10{opacity:0.1;}
</style>
<path class="st0" d="M760.6,231.9c0,40.8-31.4,74.6-72,77.8c-0.7,0-1.3,0.1-2,0.1v-74c0-1.5-0.7-2.9-1.8-3.9
	c-0.1-0.1-0.1-0.1-0.2-0.2c-0.1-0.1-0.1-0.1-0.2-0.2c-1.4-0.9-3.2-1.1-4.8-0.4l-0.8-1.8c0.9-0.4,1.9-0.6,2.9-0.6l-57-49.1
	c0.4-0.5,0.9-1,1.4-1.5c29.7-31.3,79-32.6,110.3-2.9C751.8,190,760.6,210.5,760.6,231.9L760.6,231.9z"/>
<path class="st1" d="M686.6,230.8c0,0.2-0.1,0.5-0.2,0.7c-0.4,0.4-1,0.5-1.4,0.1l-3.4-2.9l-57-49.1L464.8,42c-1.9-1.6-4.7-1.6-6.5,0
	L243.2,228.9l-1.9,1.7c-0.1,0.1-0.2,0.1-0.3,0.2c-0.2,0.1-0.3,0.1-0.5,0.1c-0.2,0-0.5-0.1-0.6-0.3c-0.4-0.4-0.3-1,0.1-1.4
	c0,0,0,0,0,0l0.3-0.2L457,40.5c2.6-2.3,6.5-2.3,9.2,0L626,178.2l60.3,51.9C686.4,230.3,686.5,230.6,686.6,230.8z"/>
<path class="st2" d="M565.1,260.4l-2.6-7.2l-9.1-25l-19.5-53.8l-21.8-60.2L472.7,5.6c-1.6-4.4-6.5-6.7-10.9-5.1L234.3,83
	c-4.4,1.6-6.7,6.5-5.1,10.9L285,247.8l0.9,2.6l58.6,26.5l16.5,7.5l2.7,1.2l69.7,31.6l2.7-1l45.7-16.6l69-25l9.3-3.4
	C564.4,269.7,566.7,264.8,565.1,260.4z"/>
<path class="st3" d="M469.7,132.2c-2.4-6.5-9.5-9.8-16-7.5l-90,32.6l-43.5,15.8c-6.5,2.3-9.8,9.5-7.5,16c2.3,6.5,9.5,9.8,16,7.5
	c0,0,0,0,0,0l34.9-12.7l98.6-35.7C468.7,145.9,472,138.7,469.7,132.2z"/>
<path class="st3" d="M485.5,175.9c-2.4-6.5-9.5-9.8-16-7.5l-15.3,5.5l-90.6,32.9l-27.6,10c-6.5,2.4-9.8,9.5-7.5,16s9.5,9.8,16,7.5
	l0,0l19.1-6.9L478,191.9c0.3-0.1,0.5-0.2,0.8-0.3C484.8,189,487.8,182.1,485.5,175.9z"/>
<path class="st3" d="M501.6,220.1c-2.4-6.5-9.5-9.8-16-7.5l-42.8,15.5l-33.1,12l-46,16.7L352,261c-5.5,2-8.9,7.6-8.1,13.4
	c0.1,0.8,0.3,1.7,0.6,2.5l16.5,7.5l2.7-1h0l83.5-30.3l46.9-17C500.6,233.8,503.9,226.6,501.6,220.1L501.6,220.1z"/>
<path class="st3" d="M407.8,89.2c-2.4-6.5-9.5-9.8-16-7.5l-51.7,18.7c-6.5,2.4-9.8,9.5-7.5,16s9.5,9.8,16,7.5l16.4-5.9l10.8-3.9
	l24.5-8.9C406.8,102.9,410.2,95.7,407.8,89.2z"/>
<path class="st4" d="M614.1,114.1h-242c-2.9,0-5.6,1.5-7.2,3.9c-0.9,1.4-1.3,2.9-1.3,4.6v163l69.7,31.6l9.8,4.5l15.5,7
	c1.8,0.8,3.9,0.8,5.8,0l15.5-7l48.5-22l45.2-20.5l48.9-22.2V122.6C622.6,117.9,618.8,114.1,614.1,114.1z"/>
<path class="st3" d="M564.1,228.1h-142c-6.7,0-12.2,5.3-12.5,12c0,0.2,0,0.3,0,0.5c0,6.9,5.6,12.5,12.5,12.5h142
	c6.9,0,12.5-5.6,12.5-12.5S571,228.1,564.1,228.1z"/>
<path class="st3" d="M572.2,277.6c-2.3-1.9-5.1-3-8.1-3h-142c-6.9,0-12.5,5.6-12.5,12.5s5.6,12.5,12.5,12.5h106.4l45.2-20.5
	C573.3,278.6,572.8,278.1,572.2,277.6z"/>
<path class="st3" d="M443.2,321.6l15.5,7c1.8,0.8,3.9,0.8,5.8,0l15.5-7H443.2z"/>
<path class="st3" d="M532.4,174.8c-1.8-4.9-6.5-8.2-11.7-8.2h-55c-4.9,0-9.4,2.9-11.4,7.3c-0.7,1.6-1.1,3.4-1.1,5.2
	c0,6.9,5.6,12.5,12.5,12.5h55c6.9,0,12.5-5.6,12.5-12.5C533.1,177.7,532.9,176.2,532.4,174.8z"/>
<path class="st1" d="M523.6,299.6l-48.5,22l-11.5,5.2c-1.3,0.6-2.8,0.6-4.1,0l-11.5-5.2h-4.9l15.5,7c1.8,0.8,3.9,0.8,5.8,0l15.5-7
	l48.5-22H523.6z M523.6,299.6l-48.5,22l-11.5,5.2c-1.3,0.6-2.8,0.6-4.1,0l-11.5-5.2h-4.9l15.5,7c1.8,0.8,3.9,0.8,5.8,0l15.5-7
	l48.5-22H523.6z M523.6,299.6l-48.5,22l-11.5,5.2c-1.3,0.6-2.8,0.6-4.1,0l-11.5-5.2h-4.9l15.5,7c1.8,0.8,3.9,0.8,5.8,0l15.5-7
	l48.5-22H523.6z M686.6,230.8c-0.4-0.4-0.8-0.7-1.2-1c-2-1.3-4.5-1.5-6.7-0.5l-106.4,48.2l-48.6,22l-48.5,22l-11.5,5.2
	c-1.3,0.6-2.8,0.6-4.1,0l-11.5-5.2l-12-5.4l-72.4-32.8l0,0l-19.7-9L285,247.8l-40.6-18.4c-0.4-0.2-0.8-0.3-1.3-0.4
	c-1-0.2-2-0.3-3-0.1c-3.3,0.7-5.6,3.5-5.6,6.9v251.1c0,3.9,3.1,7,7,7h440c3.9,0,7-3.1,7-7V235.7
	C688.6,233.9,687.8,232.1,686.6,230.8L686.6,230.8z M686.6,486.9c0,2.8-2.2,5-5,5h-440c-2.8,0-5-2.2-5-5V235.7
	c0-1.7,0.9-3.3,2.3-4.2c0.5-0.3,1-0.5,1.6-0.7c0.2,0,0.3-0.1,0.5-0.1c0.2,0,0.4,0,0.6,0c0.7,0,1.4,0.2,2.1,0.5l42.3,19.2l58.6,26.5
	l16.5,7.5l2.7,1.2l69.7,31.6l9.8,4.5l15.5,7c1.8,0.8,3.9,0.8,5.8,0l15.5-7l48.5-22l45.2-20.5l105.8-47.9c1.5-0.7,3.3-0.6,4.8,0.4
	c0.1,0,0.2,0.1,0.2,0.2c0.1,0.1,0.2,0.1,0.2,0.2c1.2,0.9,1.8,2.4,1.8,3.9L686.6,486.9z M523.6,299.6l-48.5,22l-11.5,5.2
	c-1.3,0.6-2.8,0.6-4.1,0l-11.5-5.2h-4.9l15.5,7c1.8,0.8,3.9,0.8,5.8,0l15.5-7l48.5-22H523.6z M523.6,299.6l-48.5,22l-11.5,5.2
	c-1.3,0.6-2.8,0.6-4.1,0l-11.5-5.2h-4.9l15.5,7c1.8,0.8,3.9,0.8,5.8,0l15.5-7l48.5-22H523.6z M361,284.4l2.7,1.2v-2.2L361,284.4z
	 M523.6,299.6l-48.5,22l-11.5,5.2c-1.3,0.6-2.8,0.6-4.1,0l-11.5-5.2h-4.9l15.5,7c1.8,0.8,3.9,0.8,5.8,0l15.5-7l48.5-22H523.6z"/>
<ellipse class="st5" cx="133.2" cy="479.5" rx="77" ry="12.4"/>
<linearGradient id="SVGID_1_" gradientUnits="userSpaceOnUse" x1="171.7591" y1="-50.6155" x2="171.7591" y2="435.3676" gradientTransform="matrix(1 0 0 -1 -47.24 435.37)">
	<stop  offset="0" style="stop-color:#808080;stop-opacity:0.25"/>
	<stop  offset="0.54" style="stop-color:#808080;stop-opacity:0.12"/>
	<stop  offset="1" style="stop-color:#808080;stop-opacity:0.1"/>
</linearGradient>
<path class="st6" d="M207.7,173.9c0,0-3.1-0.4-3.1-5s-2.2-13-2.2-13l0,0c0,0-1.9-14.7-4.6-17.1c-2.7-2.3-6.1-16.1-6.1-16.1
	s-0.6-7.4-1.8-9.1s-2.8-5.5-5.2-11.1s-12.3-9.5-12.3-9.5s-17.9-10.4-23-13.8l0,0c-0.5-0.3-0.9-0.6-1.3-1c-0.9-1.2-4.7-1.2-4.7-1.2
	c-0.4-2.5-0.8-5.5-0.9-8.1c0-0.3,0-0.6,0-0.9c5.7-3.3,9.9-8.6,12-14.9c0.1-0.3,0.2-0.6,0.3-0.9c0.7-0.2,1.2-0.7,1.5-1.4
	c0.5-1,0.5-2.2,1-3.2c0.7-1.1,1.9-1.7,2.9-2.6c2.5-2.1,3.2-5.7,3-9c-0.1-2.6-0.5-5.3-0.3-7.9l0-0.7c0-0.4,0.1-0.8,0.2-1.2
	c0.4-2,1.2-3.8,1.7-5.7s0.5-4.1-0.6-5.8c-1.6-2.5-5-2.9-8-3.2c-3.4-0.3-6.4,0.1-8.5-2.7c-1-1.5-2.1-2.8-3.4-4.1
	c-0.4-0.4-4.7-3-4.7-3.2c-4.2-1.9-8.9-2.3-13.4-1c-2.2,0.6-4.3,1.7-6.6,2.2c-4.9,1.2-10.5-0.1-14.6,2.7c-2.3,1.6-3.7,4.1-5,6.5
	c-1.1,2-2.1,4-3.2,6c-1.7,3.3-3.5,6.7-4.3,10.3c-0.2,0.8-0.2,1.6-0.3,2.4l0,0v0c0,0.3,0,0.6,0,0.9v0.4c0,0.3,0,0.5,0,0.8
	c0,0.2,0,0.3,0.1,0.5c0,0.2,0.1,0.5,0.1,0.8c0,0.3,0.1,0.7,0.2,1c0,0.2,0.1,0.3,0.1,0.4c0.1,0.3,0.2,0.5,0.3,0.8
	c0.1,0.1,0.1,0.3,0.2,0.4c0.1,0.3,0.3,0.5,0.4,0.8c0.1,0.1,0.1,0.2,0.2,0.3c0.2,0.4,0.5,0.7,0.7,1.1c1.7,2.1,4.2,3.5,6,5.4
	c0,0.1,0,0.2,0,0.2c0,0.2,0,0.4,0,0.7c0.2,8.9,4.8,17.2,12.3,22.1c0,0.3,0,0.6,0.1,0.9c0.2,2.3,0.1,4.7-0.1,7
	c-0.7-0.8-1.6-1.2-2.6-1.2c-0.3,0-0.7,0-1,0.1l-0.1-0.1l0,0v0.1c-1.7,0.4-3.9,2.2-5.9,7.4c0,0-6.2,7-11,6.7
	c-4.7-0.3-16.7,7.3-16.7,7.3s-11.7,7.6-14.2,15.3c-1.4,4.4-3.1,8.7-5,12.9l-14.5,29.8l0,0l-2.7,23.7c0,0,1.5,10.5,1.2,12.1
	c-0.3,1.6,6.1,16.1,6.1,16.1s21,37,29.6,38.9l0.6-0.4c0.4,0.2,0.8,0.3,1.2,0.4l1.8-1.2c0.1,1.4,0.1,2.8-0.1,4.2
	c-1.2,3.6,0.4,27.5,2.5,32.1s1.3,65.9,1.3,65.9l-0.3,5.4c0,0,0,0.2,0.1,0.5l-0.1,1.3l0.2,0.1c0.2,1.7,0.1,3.5-0.2,5.1
	c-0.7,2.4-1,9.1-1,9.1s-5.9,37.8-3.1,45.4c2.8,7.6,5.2,15.9,5.2,15.9s3,9.5,0.1,11.1s-10.8,4.3-9.2,8.3c1.5,3.6,7.2,13.4,8,14.9
	l-0.1,0.8l-1.2,12.6c0.2,1.7,0.6,3.3,1.3,4.8c1.3,2.7,3.7,5.6,8.4,5.3c0.8-0.1,1.7-0.2,2.6-0.3c8.6-1.2,19.2-5,19.2-5
	c-0.5-0.3-1.1-0.8-1.5-1.2l0,0c-0.9-0.8-1.3-2-1.3-3.2c0.1-2.3-4.2-13.2-5.2-15.9c-0.2-0.4-0.3-0.6-0.3-0.6s9.8-10.2,8.2-19.3
	c0,0-10.8-6.3-7.3-9.8c3.6-3.5,9.9-13.4,9.9-13.4s0.3-37.2,0-42.8c-0.3-3.9-0.1-7.7,0.5-11.6c0.1-0.6,0.3-1.1,0.4-1.7
	c4.9,0.7,9.9,1.1,14.9,1.1c1.8,0,3.7,0,5.5-0.1c0,0.5,0,1.1,0.1,1.7c0.4,9.2,1.2,25.4,1.8,31.4c0.9,8.6,5.8,31.8,5.8,31.8
	s-9.3,6,1.6,20.7c0,0,0,5.3-0.7,6.1l0,0c-0.8,2.5-1.4,5.1-1.9,7.7c-0.5,2.8-0.6,5.6,0.1,7.1c1.8,3.5,12.4,3.2,12.4,3.2l0,0l0.3,0
	c4.1-0.4,8.1,0.8,11.3,3.4c4.1,3.3,19.4,1.8,27.8,0.8c3.3-0.4,5.4-0.8,5.4-0.8c0.1-0.4,0.1-0.8,0.1-1.1l0,0
	c-0.1-2-1.7-6.5-12.6-10.5c0,0-10.2-6.9-10.1-12.9h-0.2h-1.2c0.9,0,1.4,0,1.4,0s-4-14.6-2.4-15.8c1.6-1.2-3.3-17.4-3.3-17.4
	s-2.8-27.2-3-29.1c0-1.6,0.3-3.3,0.7-4.8l-0.7-14.9c0,0-0.1-5,0-6.6c0-1.4-0.1-2.8-0.3-4.2c-0.1-0.6-0.1-1.1-0.2-1.7
	c3.8-1,6.3-1.9,6.3-1.9l-0.4-51.9c3.3-6.3,3.9-20.2,3.8-30c0-6.3-0.3-11-0.3-11l4.4-7.3c0,0,1-8.7-0.6-10.6
	c-0.7-0.9-0.4-1.8,0.2-2.5c0.3-0.2,0.6-0.5,1-0.7c0,0,0-0.1-0.1-0.2c0.3-0.3,0.6-0.5,1-0.7c0,0-1.6-2.4-0.2-3.5
	c1.3,0.9,2.5,1.6,3.4,2.1c-0.1,0.6-0.1,0.9-0.1,0.9l0.4-0.8c0.9,0.5,1.4,0.8,1.4,0.8s7-13.9,6.8-15.9s4.7-10.7,4.7-10.7
	s0.6-4.5,3.3-6.4c2.7-1.9,2.1-15.6,2.1-15.6s0.7-7.2,2.5-10.1C211,177.8,207.7,173.9,207.7,173.9z M74.4,167.8l0.1,3.3
	c-0.8-1.3-1.4-2.2-1.4-2.2L74.4,167.8z"/>
<path class="st3" d="M190.2,233.5l-1.7,7.3c0,0-13.7-7-16.1-15.8c-2.5-8.9,4.1-12.2,4.1-12.2l12.7,5.4L190.2,233.5z"/>
<path class="st7" d="M190.2,233.5l-1.7,7.3c0,0-13.7-7-16.1-15.8c-2.5-8.9,4.1-12.2,4.1-12.2l12.7,5.4L190.2,233.5z"/>
<path class="st3" d="M113.6,480.7c0,0-12.6,4.6-21.3,5.2c-4.6,0.3-7-2.5-8.3-5.2c-0.7-1.5-1.1-3.1-1.3-4.8l1.1-12.5l0.6-6.7
	l18.5-4.8l2.6,8l0.2,0.6c1.1,2.7,5.3,13.5,5.1,15.8c0,1.2,0.5,2.3,1.3,3.1C112.6,480,113,480.4,113.6,480.7z"/>
<path class="st3" d="M199.9,474.4c0,0.4,0,0.8-0.1,1.1c0,0-27,4.5-32.6,0c-3.2-2.7-7.3-3.9-11.4-3.3c0,0-10.5,0.3-12.2-3.2
	c-0.7-1.4-0.5-4.2-0.1-7c0.5-2.6,1.1-5.2,1.8-7.7l0.4-0.3l2.5-2l29.1-0.9h0.2c-0.1,6,9.9,12.8,9.9,12.8
	C198.2,467.9,199.8,472.3,199.9,474.4z"/>
<path class="st7" d="M199.9,474.4c0,0.4,0,0.8-0.1,1.1c0,0-27,4.5-32.5,0c-3.2-2.7-7.3-3.9-11.4-3.3c0,0-10.5,0.3-12.2-3.2
	c-0.7-1.5-0.5-4.2-0.1-7c4,0.4,10.4,1.4,12.9,3.8c3.8,3.6,10.2,7.3,14.1,7.6C173.6,473.6,192,474.1,199.9,474.4z"/>
<path class="st7" d="M113.6,480.7c0,0-12.6,4.6-21.3,5.2c-4.6,0.3-7-2.5-8.3-5.3c3.2,1.1,7.7,2.2,10,1.2c2.8-1.2,12.6-2,18.2-2.4
	C112.6,480,113,480.4,113.6,480.7z"/>
<path class="st8" d="M132.3,106.5c-10.4-4.1-23.8-17.4-20.5-23.7c0.7-1.6,1.2-3.3,1.3-5c0.2-2.4,0.2-4.7,0.1-7.1
	c-0.2-3.9-0.7-7.7-1.4-11.6c0,0,32.5,0.7,30.7,5.5c-0.6,1.4-0.6,3.8-0.5,6.6c0.2,2.7,0.5,5.8,1,8.4c0.6,3.6,1.1,6.3,1.1,6.3
	s-2,2.8-3.2,2.9C139.8,89.1,147.3,112.3,132.3,106.5z"/>
<path class="st7" d="M105.7,460.6l-0.2,0.3c-9.7-11.8-21.5,2.9-21.5,2.9l-0.2-0.3l0.6-6.7l18.5-4.8l2.6,8L105.7,460.6z"/>
<path class="st7" d="M177.6,452c0,0-7.1-0.2-10.9,3.2c-3.8,3.3-22.1,0.7-21.3,0c0.2-0.4,0.4-0.8,0.4-1.2l2.5-2l29.1-0.9
	C177.6,451.6,177.6,452,177.6,452z"/>
<path class="st4" d="M117.8,359.6c-0.5,1.3-0.9,2.7-1.2,4.1c-0.7,3.8-0.8,7.7-0.5,11.5c0.3,5.5,0,42.6,0,42.6s-6.2,9.9-9.7,13.4
	s7.1,9.7,7.1,9.7c1.6,9-8,19.2-8,19.2c-9.7-11.8-21.5,2.9-21.5,2.9s-6.4-11.1-8-15c-1.6-3.9,6.2-6.7,9-8.3
	c2.8-1.6-0.1-11.1-0.1-11.1s-2.3-8.3-5.1-15.8c-2.8-7.6,3-45.2,3-45.2s0.3-6.7,1-9c0.4-1.7,0.4-3.4,0.2-5.1c0-0.6-0.1-1.1-0.1-1.4
	s-0.1-0.5-0.1-0.5l0.1-0.2l3.9-7.4C87.8,344,119.7,354.9,117.8,359.6z"/>
<path class="st4" d="M177.6,451.1c0,0-7.1-0.2-10.9,3.2c-3.8,3.3-22.1,0.7-21.3,0c0.8-0.7,0.7-6.1,0.7-6.1
	c-10.7-14.7-1.6-20.6-1.6-20.6s-4.8-23.1-5.7-31.7c-0.6-6-1.4-22.1-1.8-31.3c-0.2-3.9-0.3-6.7-0.3-6.7l8.8-1.8l1.1-0.2l21.2-4.2
	c0,0,0.6,3.9,1,7.2c0.2,1.4,0.3,2.8,0.3,4.2c-0.1,1.6,0,6.5,0,6.5l0.7,14.8c-0.5,1.6-0.7,3.2-0.7,4.8c0.1,1.9,2.9,28.9,2.9,28.9
	s4.8,16.1,3.2,17.3S177.6,451.1,177.6,451.1z"/>
<path class="st7" d="M142.5,64.6c-0.6,1.4-0.6,3.8-0.5,6.6c-8.9,5.4-20.1,5.1-28.8-0.5c-0.2-3.9-0.7-7.7-1.4-11.6
	C111.8,59.1,144.4,59.8,142.5,64.6z"/>
<path class="st8" d="M155.1,47.2c0,2.8-0.4,5.7-1.3,8.4c-4.6,14.2-19.9,21.9-34.1,17.3c-10.9-3.6-18.4-13.6-18.6-25
	c0-0.2,0-0.4,0-0.6c-0.3-14.9,11.6-27.2,26.6-27.5c14.9-0.3,27.2,11.6,27.5,26.6C155.1,46.6,155.1,46.9,155.1,47.2L155.1,47.2z"/>
<path class="st7" d="M132.3,106.5c-10.4-4.1-23.8-17.4-20.5-23.7c0.7-1.6,1.2-3.3,1.3-5l14.3,11.7l8.8,7.2l6.7-17.1
	c0.6,3.6,1.1,6.3,1.1,6.3s-2,2.8-3.2,2.9C139.8,89.1,147.3,112.3,132.3,106.5z"/>
<polygon class="st4" points="169.2,158.3 157.3,358.6 141.8,359.6 101.5,243.5 108.1,105.6 109.5,76.5 127.4,91.2 136.2,98.5 
	143.1,80.9 156,92.1 "/>
<path class="st7" d="M117.8,359.6c-0.5,1.3-0.9,2.7-1.2,4.1c-11.3-1.7-22.3-5.2-32.6-10.2l-0.2-0.1l0.1-1.3l0-0.7l3.9-7.4
	C87.8,344,119.7,354.9,117.8,359.6z"/>
<path class="st7" d="M145.8,363.6c-2.9,0.5-5.8,0.8-8.7,1c-0.2-3.9-0.3-6.7-0.3-6.7l8.8-1.8L145.8,363.6z"/>
<path class="st7" d="M168.9,358.9c-5.6,1.5-14.3,3.1-22.1,2.1l-0.1-5l21.2-4.2C167.9,351.7,168.5,355.6,168.9,358.9z"/>
<path class="st7" d="M146.7,361.9c-32.4,5.5-62-10.3-62-10.3l0.3-5.4c0,0,0.7-60.9-1.3-65.6c-2-4.7-3.6-28.3-2.5-32
	c1.2-3.6-4.2-58.1-4.2-58.1l-0.9-22.1l-31.8-12.9l14.2-29.6c1.9-4.2,3.6-8.4,4.9-12.8c2.5-7.7,13.9-15.3,13.9-15.3
	s11.8-7.6,16.4-7.3s10.7-6.7,10.7-6.7c4.5-11.5,8.6-6.3,8.6-6.3c0,0.5,0,0-0.2,1.7c-1.6,12.6,25.5,52.4,25.9,53.1l0,0l2.6,62.9
	l2.6,79.6L146.7,361.9z"/>
<path class="st3" d="M145.8,361.9c-32.4,5.5-62-10.3-62-10.3l0.3-5.4c0,0,0.7-60.9-1.3-65.6c-2-4.7-3.6-28.3-2.5-32
	c1.2-3.6-4.2-58.1-4.2-58.1l-0.9-22.1l-31.8-12.9l14.2-29.6c1.9-4.2,3.6-8.4,4.9-12.8c2.5-7.7,13.9-15.3,13.9-15.3
	s11.8-7.6,16.4-7.3s10.7-6.7,10.7-6.7c4.5-11.5,9.5-6.3,9.5-6.3c0,0.5-0.5,0.8-0.2,1.7c3.5,12.2,24.7,52.4,25.1,53.1l0,0l2.6,62.9
	l2.6,79.6L145.8,361.9z"/>
<path class="st7" d="M137.1,134.2c-3.5-1.5-21.9-22.5-21.9-22.5v-4.8c-0.7-1.6-4.7-0.6-7.9,0.5l1.4-29.1l1.6,1.3
	C113.7,91.8,136.7,133.5,137.1,134.2z"/>
<path class="st3" d="M138,132.5C134.5,131,116,110,116,110v-4.8c-0.7-1.6-4.7-0.6-7.9,0.5l1.4-29.1l1.6,1.3
	C114.6,90,137.6,131.8,138,132.5z"/>
<path class="st7" d="M84.7,237.5c0.4,0,22.5-2.3,22.5-2.3s13.4,26.3,12.5,32.7s-2.5,12.1-7.8,11.1c-5.4-1-28.9,0.8-28.9,0.8
	L84.7,237.5z"/>
<path class="st3" d="M83.8,235.8c0.4,0,22.5-2.3,22.5-2.3s13.4,26.3,12.5,32.7c-0.9,6.4-2.5,12.1-7.8,11.1c-5.4-1-28.9,0.8-28.9,0.8
	L83.8,235.8z"/>
<path class="st8" d="M100.4,223.4c0,0,20.3,10.9,20.7,14.2c0.4,3.3-10.3-1.5-12.6-2c-1.5-0.4-3.1-0.6-4.7-0.7l-15.5,0.4L100.4,223.4
	z"/>
<circle class="st7" cx="131.4" cy="133.4" r="2.1"/>
<circle class="st1" cx="131.4" cy="132.6" r="2.1"/>
<circle class="st7" cx="135.4" cy="225.8" r="2.1"/>
<circle class="st1" cx="135.4" cy="224.9" r="2.1"/>
<circle class="st7" cx="133.6" cy="179.6" r="2.1"/>
<circle class="st1" cx="133.6" cy="178.7" r="2.1"/>
<path class="st3" d="M182.7,234.4c0,0,1.5,2.2,0,3.2c-1.5,1,0.1,3.5,0.1,3.5s-3.6,2.1-2,4c1.6,1.9,0.6,10.5,0.6,10.5l-4.4,7.2
	c0,0,0.3,4.7,0.3,10.9c0,9.8-0.6,23.6-3.8,29.9l0.4,51.6c0,0-15.3,5.6-28,3.9l-1.9-82.8c0,0,2.8-46.9,3.8-55.9
	c0.6-4.7,0.8-9.4,0.7-14.1c0,0-0.4-14.1-1.9-20.6c0,0-1.6-28.3-1.7-36.2c-0.1-3.8,0.1-14.7,0.3-25.1c0.2-11.4,0.5-22.1,0.5-22.1
	l-2.9-22.8c0,0,2.9-0.3,3.8,0.9c0.4,0.4,0.8,0.7,1.3,1l0,0c5,3.4,22.6,13.7,22.6,13.7s9.7,3.9,12.1,9.4c2.3,5.5,3.9,9.5,5.1,11.1
	s1.7,9,1.7,9s3.3,13.7,6,16s4.5,17,4.5,17l-23.1,18.2c0,0-2,30.2-2.5,31.4C173.9,208.3,182.7,234.4,182.7,234.4z"/>
<path class="st3" d="M183.6,234.4c0,0,1.4,2.2,0,3.2c-1.4,1,0.1,3.5,0.1,3.5s-3.6,2.1-2,4.1s0.6,10.5,0.6,10.5l-4.4,7.2
	c0,0,0.3,4.7,0.3,10.9c0,9.8-0.6,23.6-3.8,29.9l0.4,51.6c0,0-15.3,5.6-28.1,3.9l-1.9-82.8c0,0,2.8-46.9,3.8-55.9
	c0.6-4.7,0.8-9.4,0.7-14.1c0,0-0.4-14.1-1.9-20.6c0,0-1.6-28.3-1.7-36.2c-0.1-3.8,0.1-14.7,0.3-25.1c0.2-11.4,0.5-22.1,0.5-22.1
	l-3.8-23.1c0,0,3.8,0,4.7,1.2c0.4,0.4,0.8,0.7,1.3,1l0,0c5,3.4,22.6,13.7,22.6,13.7s9.7,3.9,12.1,9.4c2.3,5.5,3.9,9.5,5.1,11.1
	c1.1,1.6,1.7,9,1.7,9s3.3,13.7,6,16c2.6,2.3,4.5,17,4.5,17l-23.1,18.2c0,0-2,30.2-2.5,31.4S183.6,234.4,183.6,234.4z"/>
<path class="st7" d="M155.9,109.1l2.1,6.1l-11,11.1c0.2-11.4,0.5-22.1,0.5-22.1L143.8,81c0,0,3.8,0,4.7,1.2c0.4,0.4,0.8,0.7,1.3,1
	l0,0l9.3,26.9L155.9,109.1z"/>
<path class="st3" d="M155.1,107.4l2.1,6.1l-11,11.1c0.2-11.4,0.5-22.1,0.5-22.1l-3.8-23.1c0,0,3.8,0,4.7,1.2c0.4,0.4,0.8,0.7,1.3,1
	l0,0l9.3,26.9L155.1,107.4z"/>
<path class="st7" d="M155.1,47.2c0,2.8-0.4,5.7-1.3,8.4c-0.3,0-0.6,0-0.9-0.2c-0.2-7.1-3.7-13.8-8-19.5c-1.2-1.7-2.7-3.2-4.3-4.5
	c-1.7-1.3-3.8-1.9-5.9-1.7c-2.4,0.3-4.5,1.9-6.9,2.1c-3.2,0.3-6-1.9-9.1-2c-2.6,0-5,1.2-6.7,3.1c-1.6,1.9-2.9,4.2-3.6,6.7
	c-1.2,3.7-1.9,7.6-2,11.5c0,2.2-0.3,5-2.3,5.8c0.3-3.3-0.8-6.6-3-9l0,0c0-0.2,0-0.4,0-0.6c-0.3-14.9,11.6-27.2,26.6-27.5
	c14.9-0.3,27.2,11.6,27.5,26.6C155.1,46.6,155.1,46.9,155.1,47.2L155.1,47.2z"/>
<path class="st9" d="M139.2,4.3c-4.1-1.9-8.8-2.3-13.1-1c-2.2,0.6-4.2,1.7-6.5,2.2c-4.7,1.1-10.3-0.1-14.3,2.7
	c-2.3,1.6-3.6,4.1-4.9,6.5l-3.2,6c-1.7,3.3-3.5,6.6-4.2,10.3c-0.7,3.6-0.3,7.7,2,10.6c1.7,2.1,4.1,3.5,6,5.5c2.2,2.5,3.3,5.7,3,9
	c2.1-0.8,2.3-3.6,2.3-5.8c0.1-3.9,0.8-7.8,2-11.5c0.7-2.4,1.9-4.7,3.6-6.7c1.7-2,4.1-3.1,6.7-3.1c3.2,0.1,6,2.3,9.1,2
	c2.4-0.2,4.5-1.8,6.9-2.1c2.1-0.2,4.2,0.4,5.9,1.7c1.7,1.3,3.1,2.8,4.3,4.5c4.3,5.7,7.8,12.3,8,19.5c0.9,0.7,2.2-0.2,2.6-1.2
	c0.4-1,0.5-2.2,1-3.2c0.6-1.1,1.9-1.7,2.9-2.5c2.5-2.1,3.1-5.7,3-8.9s-0.7-6.5-0.1-9.7c0.4-2,1.2-3.8,1.7-5.7
	c0.5-1.9,0.5-4.1-0.6-5.8c-1.6-2.4-4.9-2.9-7.8-3.2c-3.3-0.3-6.2,0.1-8.3-2.7c-1-1.4-2.1-2.8-3.3-4.1C143.5,7.1,139.2,4.4,139.2,4.3
	z"/>
<path class="st7" d="M53.4,170.8l-8.3-15.3l-2.6,23.5c0,0,1.5,10.5,1.2,12.1s6,16,6,16s20.6,36.8,29.1,38.7l28.5-20.3l-7.6-9.6
	c0,0-2.6-1-3.3,0c0,0-14-24.1-15.5-25.9c-1.5-1.7-1.2-5.2-1.2-5.2s-2.2-2.3-1.5-4.5s-4.2-9.7-4.2-9.7l4.5-4.2L53.4,170.8z"/>
<path class="st3" d="M45.6,153.8l-2.2,1.7l-2.6,23.5c0,0,1.5,10.5,1.2,12.1c-0.3,1.6,6,16,6,16s20.6,36.8,29.1,38.7l28.5-20.3
	l-7.6-9.6c0,0-2.6-1-3.3,0c0,0-14-24.1-15.5-25.9c-1.5-1.7-1.2-5.2-1.2-5.2s-2.2-2.3-1.5-4.5s-4.2-9.7-4.2-9.7l4.5-4.2L45.6,153.8z"
	/>
<path class="st7" d="M180.8,246.1c1.6,1.9,0.6,10.5,0.6,10.5l-4.4,7.2c0,0,0.3,4.7,0.3,10.9l-7.3,2.3c-2.3,0.7-4.7-0.6-5.5-2.9
	c-0.1-0.5-0.2-0.9-0.2-1.4l1.3-40.8l17.1,6.5c-1.5,1,0.1,3.5,0.1,3.5S179.2,244.1,180.8,246.1z"/>
<path class="st3" d="M181.7,245.2c1.6,1.9,0.6,10.5,0.6,10.5l-4.4,7.2c0,0,0.3,4.7,0.3,10.9l-7.5,2.3c-2.2,0.7-4.6-0.6-5.3-2.8
	c-0.1-0.5-0.2-0.9-0.2-1.4l1.3-40.9l17.1,6.5c-1.5,1,0.1,3.5,0.1,3.5S180.1,243.3,181.7,245.2z"/>
<path class="st8" d="M187.4,225.8c0,0-1.2,7.4-4.1,7.9c-2.9,0.4-4.2,12-7.1,11.6c-2.9-0.4-1-10.7-0.9-12.8s-3.2-10.3-0.7-12.2
	c2.4-1.9,10.2,0,10.2,0L187.4,225.8z"/>
<path class="st7" d="M193.6,168.7l5.5-11.1c0,0,2.2,8.4,2.2,12.9s3,4.9,3,4.9s3.3,3.9,1.6,6.8c-1.8,2.9-2.5,10-2.5,10
	s0.6,13.7-2,15.5c-2.6,1.9-3.2,6.4-3.2,6.4s-4.8,8.6-4.7,10.6c0.2,2-6.7,15.8-6.7,15.8s3.3-17.1-16.1-24.6c0,0-0.2-5.8,1.3-7.4
	c1.5-1.6,3.7-2.3,2.3-10.4c-1.4-8.1-0.4-17.7-0.4-19.6s4.4-14,4.4-14L193.6,168.7z"/>
<path class="st3" d="M195.9,156l4.8,1.6c0,0,2.2,8.4,2.2,12.9s3,4.9,3,4.9s3.3,3.9,1.6,6.8c-1.8,2.9-2.5,10-2.5,10s0.6,13.7-2,15.5
	c-2.6,1.9-3.2,6.4-3.2,6.4s-4.8,8.6-4.6,10.6c0.2,2-6.7,15.8-6.7,15.8s3.3-17.1-16.1-24.6c0,0-0.1-5.8,1.3-7.4
	c1.5-1.6,3.7-2.3,2.3-10.4c-1.4-8.1-0.4-17.7-0.4-19.6s4.4-14,4.4-14L195.9,156z"/>
<path class="st7" d="M90.2,442.6c0,0,7.6-4.8,12.6-1.3C107.9,444.8,90.2,442.6,90.2,442.6z"/>
<path class="st7" d="M149.5,427.8c0,0,6.8-0.9,12.4,5.2C167.6,439.1,149.5,427.8,149.5,427.8z"/>
<g class="st10">
	<path d="M159.4,45.8c-1,0.8-2.2,1.4-2.9,2.6c-0.6,1-0.6,2.1-1,3.2c-0.4,1-1.7,1.9-2.6,1.2c-0.2-7.1-3.7-13.8-8-19.5
		c-1.2-1.7-2.7-3.2-4.3-4.5c-1.7-1.3-3.8-1.9-5.9-1.7c-2.4,0.3-4.5,1.9-6.8,2.1c-3.2,0.3-6-1.9-9.1-2c-2.6,0-5,1.2-6.7,3.1
		c-1.6,1.9-2.9,4.2-3.6,6.7c-1.2,3.7-1.9,7.6-2,11.5c0,2.2-0.3,5-2.3,5.8c0,0.6,0,1.2,0,1.8c2.1-0.8,2.3-3.6,2.3-5.8
		c0.1-3.9,0.8-7.8,2-11.5c0.7-2.4,1.9-4.7,3.6-6.7c1.7-2,4.1-3.1,6.7-3.1c3.2,0.1,6,2.3,9.1,2c2.4-0.2,4.5-1.8,6.8-2.1
		c2.1-0.2,4.2,0.4,5.9,1.7c1.7,1.3,3.1,2.8,4.3,4.5c4.3,5.7,7.8,12.3,8,19.5c0.9,0.7,2.2-0.2,2.6-1.2s0.5-2.2,1-3.2
		c0.6-1.1,1.9-1.7,2.9-2.5c2.5-2.1,3.1-5.7,3-8.9c0-0.1,0-0.2,0-0.3C162.2,41.1,161.5,44,159.4,45.8z"/>
	<path d="M101.1,45.3c-1.8-2-4.3-3.3-6-5.4c-1.4-1.9-2.2-4.1-2.3-6.5c-0.2,2.9,0.6,5.8,2.3,8.2c1.7,2.1,4.1,3.5,6,5.5
		c1.7,2,2.8,4.4,3,7C104.3,50.8,103.2,47.7,101.1,45.3z"/>
	<path d="M163.9,21.4c-0.5,1.9-1.3,3.8-1.7,5.7c-0.2,1.3-0.3,2.6-0.2,3.9c0-0.8,0.1-1.5,0.2-2.2c0.4-2,1.2-3.8,1.7-5.7
		c0.3-1.1,0.4-2.2,0.3-3.3C164.1,20.4,164,20.9,163.9,21.4z"/>
</g>
</svg>
