<?xml version="1.0" encoding="utf-8"?>
<!-- Generator: Adobe Illustrator 23.1.1, SVG Export Plug-In . SVG Version: 6.00 Build 0)  -->
<svg version="1.1" id="Layer_1" xmlns="http://www.w3.org/2000/svg" xmlns:xlink="http://www.w3.org/1999/xlink" x="0px" y="0px"
	 viewBox="0 0 400 400" style="enable-background:new 0 0 400 400;" xml:space="preserve">
<style type="text/css">
	.st0{fill:none;stroke:#010101;stroke-width:13.1882;stroke-linecap:round;stroke-linejoin:round;stroke-miterlimit:10;}
</style>
<g>
	<g>
		<path class="st0" d="M277.4,166.38l-0.14-83.84c0-5.33-5.66-9.66-12.63-9.66H51.95c-6.98,0-12.64,4.33-12.63,9.67l0.14,216.66
			c0,5.33,5.66,9.66,12.63,9.66h137.57"/>
		<line class="st0" x1="211.81" y1="182.7" x2="56.37" y2="182.7"/>
		<line class="st0" x1="177.84" y1="234.39" x2="56.37" y2="234.39"/>
		<g>
			<g>
				<path class="st0" d="M261.28,162.48l-0.12-26.27c0-3.66-4.89-6.62-10.92-6.62H66.37c-6.03,0-10.92,2.97-10.92,6.63l0.12,143.72
					c0,3.66,4.89,6.62,10.92,6.62H180.8"/>
			</g>
		</g>
		<line class="st0" x1="160.06" y1="286.38" x2="160.06" y2="130.79"/>
		<line class="st0" x1="108.37" y1="286.38" x2="108.37" y2="130.79"/>
		<line class="st0" x1="211.75" y1="183.15" x2="211.75" y2="130.79"/>
		<circle class="st0" cx="270.04" cy="257.93" r="90.64"/>
		<line class="st0" x1="85.88" y1="51.43" x2="85.88" y2="98.62"/>
		<line class="st0" x1="157.73" y1="51.43" x2="157.73" y2="98.62"/>
		<line class="st0" x1="229.58" y1="51.43" x2="229.58" y2="98.62"/>
	</g>
	<g>
		<g>
			<path class="st0" d="M270.53,325.67c-1.18,0-2.3-0.49-3.1-1.35l-49.97-53.86c-0.01-0.01-0.03-0.03-0.04-0.04
				c-6.07-6.72-9.41-15.62-9.41-25.06c0-9.45,3.34-18.35,9.41-25.06l0.76-0.84c6.18-6.84,14.42-10.6,23.21-10.6
				c8.8,0,17.04,3.77,23.22,10.6l5.92,6.56l5.92-6.56c6.18-6.84,14.42-10.6,23.21-10.6c8.8,0,17.04,3.77,23.22,10.6l0.76,0.84
				c6.07,6.72,9.41,15.62,9.41,25.06c0,9.45-3.34,18.35-9.41,25.06c-0.01,0.01-0.02,0.03-0.04,0.04l-49.97,53.86
				C272.83,325.18,271.71,325.67,270.53,325.67L270.53,325.67z M223.68,264.72"/>
		</g>
		<polyline class="st0" points="233.97,264.55 241.07,264.55 248.64,264.55 263.21,244.11 277.2,289.54 291.77,264.55 
			304.85,264.55 		"/>
	</g>
</g>
</svg>
