<?xml version="1.0" encoding="utf-8"?>
<!-- Generator: Adobe Illustrator 23.1.1, SVG Export Plug-In . SVG Version: 6.00 Build 0)  -->
<svg version="1.1" id="Layer_1" xmlns="http://www.w3.org/2000/svg" xmlns:xlink="http://www.w3.org/1999/xlink" x="0px" y="0px"
	 viewBox="0 0 400 400" style="enable-background:new 0 0 400 400;" xml:space="preserve">
<g>
	<g>
		<g>
			<g>
				<path d="M351.6,196.9h-78.2c-3,0-5.4-2.4-5.4-5.4v-30.9c0-3,2.4-5.4,5.4-5.4h63.8c2.1,0,4,1.2,4.9,3.1l14.4,30.9
					c0.8,1.7,0.7,3.6-0.3,5.2S353.4,196.9,351.6,196.9z M278.7,186.1h64.3l-9.4-20h-55V186.1z"/>
			</g>
			<g>
				<path d="M357.7,318.1h-84.4c-3,0-5.4-2.4-5.4-5.4v-97.3c0-3,2.4-5.4,5.4-5.4h84.4c3,0,5.4,2.4,5.4,5.4v97.3
					C363.1,315.6,360.7,318.1,357.7,318.1z M278.7,307.2h73.6v-86.4h-73.6V307.2z"/>
			</g>
		</g>
		<g>
			<path d="M368,220.8h-94.7c-3,0-5.4-2.4-5.4-5.4v-23.9c0-3,2.4-5.4,5.4-5.4H368c3,0,5.4,2.4,5.4,5.4v23.9
				C373.4,218.4,371,220.8,368,220.8z M278.7,210h83.8v-13.1h-83.8V210z"/>
		</g>
		<g>
			<g>
				<path d="M126.7,318.1H42.3c-3,0-5.4-2.4-5.4-5.4v-97.3c0-3,2.4-5.4,5.4-5.4h84.4c3,0,5.4,2.4,5.4,5.4v97.3
					C132.1,315.6,129.7,318.1,126.7,318.1z M47.7,307.2h73.6v-86.4H47.7V307.2z"/>
			</g>
			<g>
				<path d="M126.7,196.9H48.4c-1.9,0-3.6-0.9-4.6-2.5s-1.1-3.5-0.3-5.2L58,158.3c0.9-1.9,2.8-3.1,4.9-3.1h63.8c3,0,5.4,2.4,5.4,5.4
					v30.9C132.1,194.5,129.7,196.9,126.7,196.9z M56.9,186.1h64.3v-20h-55L56.9,186.1z"/>
			</g>
		</g>
		<g>
			<path d="M126.7,220.8H32c-3,0-5.4-2.4-5.4-5.4v-23.9c0-3,2.4-5.4,5.4-5.4h94.7c3,0,5.4,2.4,5.4,5.4v23.9
				C132.1,218.4,129.7,220.8,126.7,220.8z M37.4,210h83.8v-13.1H37.4V210z"/>
		</g>
	</g>
	<g>
		<g>
			<path d="M105.3,242.1H68.8c-3,0-5.4-2.4-5.4-5.4s2.4-5.4,5.4-5.4h36.4c3,0,5.4,2.4,5.4,5.4S108.3,242.1,105.3,242.1z"/>
		</g>
		<g>
			<path d="M331.2,242.1h-36.4c-3,0-5.4-2.4-5.4-5.4s2.4-5.4,5.4-5.4h36.4c3,0,5.4,2.4,5.4,5.4S334.2,242.1,331.2,242.1z"/>
		</g>
	</g>
	<g>
		<path d="M127.2,338.1c-1.4,0-2.8-0.6-3.8-1.6c-1-1-1.6-2.4-1.6-3.8l-0.9-202.1c0-1.4,0.6-2.8,1.6-3.8c1-1,2.4-1.6,3.8-1.6l50-0.2
			c0,0,0,0,0,0c1.3,0,2.6,0.5,3.6,1.3c5.6,4.9,12.7,7.6,20.1,7.6c7.5,0,14.7-2.7,20.3-7.7c1-0.9,2.3-1.4,3.6-1.4l49.1-0.2
			c0,0,0,0,0,0c1.4,0,2.8,0.6,3.8,1.6c1,1,1.6,2.4,1.6,3.8l0.9,202.1c0,3-2.4,5.4-5.4,5.4L127.2,338.1
			C127.2,338.1,127.2,338.1,127.2,338.1z M131.8,136l0.8,191.3l135.8-0.6l-0.8-191.3l-41.8,0.2c-7.3,5.9-16.4,9.1-25.9,9.1
			c-9.3,0-18.3-3.1-25.6-8.9L131.8,136z"/>
	</g>
	<g>
		<g>
			<path d="M283.6,135.7h-59.9c-2.3,0-4.3-1.4-5.1-3.5c-0.8-2.1-0.2-4.5,1.5-6c6-5.2,9.6-12.5,10.3-20.3c0.2-2.8,2.6-5,5.4-5h47.8
				c3,0,5.4,2.4,5.4,5.4v23.9C289,133.3,286.6,135.7,283.6,135.7z M235.3,124.9h42.9v-13.1h-37.7
				C239.5,116.4,237.8,120.8,235.3,124.9z"/>
		</g>
		<g>
			<path d="M176.2,135.7h-59.9c-3,0-5.4-2.4-5.4-5.4v-23.9c0-3,2.4-5.4,5.4-5.4h47.8c2.8,0,5.2,2.2,5.4,5
				c0.7,7.9,4.3,15.1,10.3,20.3c1.7,1.5,2.3,3.9,1.5,6C180.5,134.3,178.5,135.7,176.2,135.7z M121.8,124.9h42.9
				c-2.5-4-4.2-8.4-5.2-13.1h-37.7V124.9z"/>
		</g>
	</g>
	<g>
		<path d="M226.5,337.8h-53c-3,0-5.4-2.4-5.4-5.4v-77.6c0-3,2.4-5.4,5.4-5.4h53c3,0,5.4,2.4,5.4,5.4v77.6
			C231.9,335.4,229.5,337.8,226.5,337.8z M178.9,327h42.2v-66.8h-42.2V327z"/>
	</g>
	<g>
		<path d="M226.5,239.1h-53c-3,0-5.4-2.4-5.4-5.4v-49.1c0-3,2.4-5.4,5.4-5.4h53c3,0,5.4,2.4,5.4,5.4v49.1
			C231.9,236.7,229.5,239.1,226.5,239.1z M178.9,228.3h42.2v-38.3h-42.2V228.3z"/>
	</g>
	<g>
		<g>
			<path d="M235.8,111.6c-1.5,0-2.9-0.6-4-1.7c-1-1.1-1.5-2.6-1.4-4.1c0.1-0.8,0.1-1.7,0.1-2.5c0-9.2-4.1-17.8-11.2-23.7
				c-1.8-1.4-2.4-3.8-1.7-6c0.8-2.2,2.8-3.6,5.1-3.6l29.4-0.1c0,0,0,0,0,0c2.1,0,4,1.2,4.9,3.1l14.6,30.8c0.8,1.7,0.7,3.6-0.3,5.2
				c-1,1.6-2.7,2.5-4.6,2.5L235.8,111.6C235.9,111.6,235.9,111.6,235.8,111.6z M234.8,80.8c3.9,5.9,6.1,12.8,6.6,20l16.9-0.1
				l-9.5-20L234.8,80.8z"/>
		</g>
		<g>
			<path d="M132.4,112.1c-1.8,0-3.6-0.9-4.6-2.5c-1-1.6-1.1-3.5-0.4-5.2l14.3-30.9c0.9-1.9,2.8-3.1,4.9-3.1l30.3-0.1c0,0,0,0,0,0
				c2.3,0,4.3,1.4,5.1,3.6c0.8,2.1,0.1,4.5-1.6,6c-7,5.8-11,14.4-11,23.5c0,0.8,0,1.7,0.1,2.8c0.1,1.5-0.4,3-1.4,4.1s-2.5,1.8-4,1.8
				L132.4,112.1C132.4,112.1,132.4,112.1,132.4,112.1z M150.2,81.1l-9.3,20.1l17.8-0.1c0.4-7.2,2.6-14.1,6.4-20.1L150.2,81.1z"/>
		</g>
	</g>
	<g>
		<path d="M200,125.3c-3,0-5.4-2.4-5.4-5.4V86.7c0-3,2.4-5.4,5.4-5.4s5.4,2.4,5.4,5.4v33.2C205.4,122.9,203,125.3,200,125.3z"/>
	</g>
	<g>
		<path d="M216.6,108.7h-33.2c-3,0-5.4-2.4-5.4-5.4s2.4-5.4,5.4-5.4h33.2c3,0,5.4,2.4,5.4,5.4S219.6,108.7,216.6,108.7z"/>
	</g>
	<g>
		<path d="M226.5,173.8h-53c-3,0-5.4-2.4-5.4-5.4s2.4-5.4,5.4-5.4h53c3,0,5.4,2.4,5.4,5.4S229.5,173.8,226.5,173.8z"/>
	</g>
	<g>
		<path d="M200,144.7c-22.8,0-41.4-18.6-41.4-41.4s18.6-41.4,41.4-41.4c22.8,0,41.4,18.6,41.4,41.4S222.8,144.7,200,144.7z
			 M200,72.7c-16.9,0-30.6,13.7-30.6,30.6s13.7,30.6,30.6,30.6c16.9,0,30.6-13.7,30.6-30.6S216.9,72.7,200,72.7z"/>
	</g>
</g>
</svg>
