<?xml version="1.0" encoding="utf-8"?>
<!-- Generator: Adobe Illustrator 23.1.1, SVG Export Plug-In . SVG Version: 6.00 Build 0)  -->
<svg version="1.1" id="Layer_1" xmlns="http://www.w3.org/2000/svg" xmlns:xlink="http://www.w3.org/1999/xlink" x="0px" y="0px"
	 viewBox="0 0 400 400" style="enable-background:new 0 0 400 400;" xml:space="preserve">
<style type="text/css">
	.st0{fill:none;stroke:#005b96;stroke-width:13.1882;stroke-linecap:round;stroke-linejoin:round;stroke-miterlimit:10;}
</style>
<g>
	<path class="st0" d="M302.55,265.77c-12.87-1.27-26.45-2.93-40.41-4.95c-14.38-1.82-25.66-15.56-25.69-31.35l0-7.08
		c-10.82,7.02-23.25,11.03-36.45,11.03c-13.21,0-25.63-4.01-36.45-11.03v7.08c-0.03,15.78-11.3,29.52-25.69,31.35
		c-13.95,2.01-27.53,3.68-40.36,4.94c-16.63,1.57-30.1,15.8-30.09,31.74v32.43c83.7,20.09,181.49,20.09,265.19,0v-32.42
		C332.61,281.57,319.14,267.34,302.55,265.77z"/>
	<ellipse class="st0" cx="200" cy="144.22" rx="75.77" ry="89.22"/>
</g>
</svg>
