<?xml version="1.0" encoding="utf-8"?>
<!-- Generator: Adobe Illustrator 23.1.1, SVG Export Plug-In . SVG Version: 6.00 Build 0)  -->
<svg version="1.1" id="Layer_1" xmlns="http://www.w3.org/2000/svg" xmlns:xlink="http://www.w3.org/1999/xlink" x="0px" y="0px"
	 viewBox="0 0 400 400" style="enable-background:new 0 0 400 400;" xml:space="preserve">
<style type="text/css">
	.st0{fill:none;stroke:#005b96;stroke-width:13.1882;stroke-linecap:round;stroke-linejoin:round;stroke-miterlimit:10;}
</style>
<g>
	<path class="st0" d="M306.61,76.44c0-6.25-5.07-11.32-11.33-11.32h-49.43v14.49h-91.71V65.12h-49.56
		c-6.26,0-11.33,5.07-11.33,11.33l0.12,245.74c0,6.25,5.07,11.32,11.33,11.32h190.7c6.26,0,11.33-5.07,11.33-11.33L306.61,76.44z"/>
	<path class="st0" d="M228.26,57.47c0.12-1.01,0.2-2.06,0.2-3.16c0-15.72-12.74-28.46-28.46-28.46s-28.46,12.74-28.46,28.46
		c0,1.1,0.08,2.15,0.2,3.16h-17.59v22.14h91.71V57.47H228.26z"/>
	<g>
		<line class="st0" x1="153.32" y1="288.34" x2="272.63" y2="288.34"/>
		<line class="st0" x1="153.32" y1="147.38" x2="272.63" y2="147.38"/>
		<line class="st0" x1="153.32" y1="194.37" x2="272.63" y2="194.37"/>
		<line class="st0" x1="153.32" y1="170.88" x2="272.63" y2="170.88"/>
		<line class="st0" x1="153.32" y1="217.86" x2="272.63" y2="217.86"/>
		<line class="st0" x1="153.32" y1="241.35" x2="272.63" y2="241.35"/>
		<line class="st0" x1="153.32" y1="123.89" x2="272.63" y2="123.89"/>
		<line class="st0" x1="153.32" y1="264.84" x2="272.63" y2="264.84"/>
	</g>
	<g>
		<line class="st0" x1="127.37" y1="288.34" x2="131.09" y2="288.34"/>
		<line class="st0" x1="127.37" y1="147.38" x2="131.09" y2="147.38"/>
		<line class="st0" x1="127.37" y1="194.37" x2="131.09" y2="194.37"/>
		<line class="st0" x1="127.37" y1="170.88" x2="131.09" y2="170.88"/>
		<line class="st0" x1="127.37" y1="217.86" x2="131.09" y2="217.86"/>
		<line class="st0" x1="127.37" y1="241.35" x2="131.09" y2="241.35"/>
		<line class="st0" x1="127.37" y1="123.89" x2="131.09" y2="123.89"/>
		<line class="st0" x1="127.37" y1="264.84" x2="131.09" y2="264.84"/>
	</g>
</g>
</svg>
