<?xml version="1.0" encoding="utf-8"?>
<!-- Generator: Adobe Illustrator 23.1.1, SVG Export Plug-In . SVG Version: 6.00 Build 0)  -->
<svg version="1.1" id="Layer_1" xmlns="http://www.w3.org/2000/svg" xmlns:xlink="http://www.w3.org/1999/xlink" x="0px" y="0px"
	 viewBox="0 0 400 400" style="enable-background:new 0 0 400 400;" xml:space="preserve">
<style type="text/css">
	.st0{fill:none;stroke:#005b96;stroke-width:13.1882;stroke-linecap:round;stroke-linejoin:round;stroke-miterlimit:10;}
</style>
<g>
	<ellipse class="st0" cx="200" cy="144.22" rx="75.77" ry="89.22"/>
	<path class="st0" d="M302.55,265.77c-12.87-1.27-43.06-5.42-44.34-5.79c-16.16,17.79-36.34,28.39-58.21,28.39
		c-21.87,0-42.05-10.6-58.21-28.39c-1.28,0.37-31.47,4.52-44.3,5.79c-16.63,1.57-30.1,15.8-30.09,31.74v32.43
		c83.7,20.09,181.49,20.09,265.19,0v-32.42C332.61,281.57,319.14,267.34,302.55,265.77z"/>
	<g>
		<path class="st0" d="M257.79,260.58c-13.33-1.81-25.11-3.46-33.24-4.66c-7.27,5.87-15.63,9.26-24.54,9.26
			c-8.91,0-17.27-3.38-24.53-9.25c-16.84,2.47-48.54,6.8-77.64,10.46"/>
	</g>
	<line class="st0" x1="200" y1="265.17" x2="200" y2="289.36"/>
</g>
</svg>
